<svg xmlns="http://www.w3.org/2000/svg" viewBox="0 0 576 512"><!--!Font Awesome Free 6.6.0 by @fontawesome - https://fontawesome.com License - https://fontawesome.com/license/free Copyright 2024 Fonticons, Inc.--><path d="M13 352h32.4C67.2 454.7 181.9 512 288 512c106.2 0 220.9-57.4 242.6-160h32.4c10.7 0 16-12.9 8.5-20.5l-67-67c-4.7-4.7-12.3-4.7-17 0l-67 67c-7.6 7.6-2.2 20.5 8.5 20.5h35.1c-20.3 54.3-85 86.6-144.1 94V256h52c6.6 0 12-5.4 12-12v-40c0-6.6-5.4-12-12-12h-52v-5.5c37.3-13.2 64-48.7 64-90.5C384 43.8 341.6 .7 289.4 0 235.7-.7 192 42.5 192 96c0 41.8 26.7 77.4 64 90.5V192h-52c-6.6 0-12 5.4-12 12v40c0 6.6 5.4 12 12 12h52v190c-58.9-7.4-123.8-39.7-144.1-94h35.1c10.7 0 16-12.9 8.5-20.5l-67-67c-4.7-4.7-12.3-4.7-17 0L4.5 331.5C-3.1 339.1 2.3 352 13 352zM288 64c17.6 0 32 14.4 32 32s-14.4 32-32 32-32-14.4-32-32 14.4-32 32-32z"/></svg>